HIERARCHY
ROOT Hips
{
 OFFSET 0.000000 0.000000 0.000000
 CHANNELS 6 Xposition Yposition Zposition Yrotation Xrotation Zrotation
 JOINT Chest
 {
  OFFSET 0.000000 9.585900 0.002600
  CHANNELS 3 Yrotation Xrotation Zrotation
  JOINT Chest2
  {
   OFFSET 0.000000 9.601200 -0.005300
   CHANNELS 3 Yrotation Xrotation Zrotation
   JOINT Chest3
   {
    OFFSET 0.000000 9.561800 0.000000
    CHANNELS 3 Yrotation Xrotation Zrotation
    JOINT Chest4
    {
     OFFSET 0.000000 9.552100 0.000000
     CHANNELS 3 Yrotation Xrotation Zrotation
     JOINT Neck
     {
      OFFSET 0.000000 14.453000 0.000000
      CHANNELS 3 Yrotation Xrotation Zrotation
      JOINT Head
      {
       OFFSET 0.000000 8.936500 -0.011300
       CHANNELS 3 Yrotation Xrotation Zrotation
       End Site
       {
        OFFSET 0.000000 17.073600 -0.006000
       }
      }
     }
     JOINT RightCollar
     {
      OFFSET -2.921100 9.558500 0.000000
      CHANNELS 3 Yrotation Xrotation Zrotation
      JOINT RightShoulder
      {
       OFFSET -13.519700 0.000000 0.000000
       CHANNELS 3 Yrotation Xrotation Zrotation
       JOINT RightElbow
       {
        OFFSET 0.000000 -29.696600 0.000000
        CHANNELS 3 Yrotation Xrotation Zrotation
        JOINT RightWrist
        {
         OFFSET 0.000000 -24.004700 0.000000
         CHANNELS 3 Yrotation Xrotation Zrotation
         End Site
         {
          OFFSET 0.000000 -17.728500 0.000000
         }
        }
       }
      }
     }
     JOINT LeftCollar
     {
      OFFSET 2.921100 9.558500 0.000000
      CHANNELS 3 Yrotation Xrotation Zrotation
      JOINT LeftShoulder
      {
       OFFSET 13.519700 0.000000 0.000000
       CHANNELS 3 Yrotation Xrotation Zrotation
       JOINT LeftElbow
       {
        OFFSET 0.000000 -29.696600 0.000000
        CHANNELS 3 Yrotation Xrotation Zrotation
        JOINT LeftWrist
        {
         OFFSET 0.000000 -24.004700 0.000000
         CHANNELS 3 Yrotation Xrotation Zrotation
         End Site
         {
          OFFSET 0.000000 -17.728500 0.000000
         }
        }
       }
      }
     }
    }
   }
  }
 }
 JOINT RightHip
 {
  OFFSET -7.771700 -0.012900 -0.001300
  CHANNELS 3 Yrotation Xrotation Zrotation
  JOINT RightKnee
  {
   OFFSET 0.000000 -40.869800 0.001200
   CHANNELS 3 Yrotation Xrotation Zrotation
   JOINT RightAnkle
   {
    OFFSET 0.000000 -39.717900 0.002100
    CHANNELS 3 Yrotation Xrotation Zrotation
    JOINT RightToe
    {
     OFFSET 0.000000 -4.965400 11.033500
     CHANNELS 3 Yrotation Xrotation Zrotation
     End Site
     {
      OFFSET 0.000000 -1.423100 5.872300
     }
    }
   }
  }
 }
 JOINT LeftHip
 {
  OFFSET 7.771700 -0.012900 -0.001300
  CHANNELS 3 Yrotation Xrotation Zrotation
  JOINT LeftKnee
  {
   OFFSET 0.000000 -40.869800 0.001200
   CHANNELS 3 Yrotation Xrotation Zrotation
   JOINT LeftAnkle
   {
    OFFSET 0.000000 -39.717900 0.002100
    CHANNELS 3 Yrotation Xrotation Zrotation
    JOINT LeftToe
    {
     OFFSET 0.000000 -4.965400 11.033500
     CHANNELS 3 Yrotation Xrotation Zrotation
     End Site
     {
      OFFSET 0.000000 -1.423100 5.872300
     }
    }
   }
  }
 }
}
MOTION
Frames: 13
Frame Time: 0.008333
-66.426280 50.350409 -3.453066 165.697837 -8.674896 -1.049136 2.433211 6.604937 0.740915 0.040402 0.267414 -0.007169 0.175313 0.498868 -0.006082 2.242160 6.366783 0.036970 -4.113568 19.039910 -0.094964 -7.498859 -0.345241 1.112342 1.680037 8.693739 0.099106 -10.481792 -12.738711 -9.167451 -60.061125 -68.037774 87.524105 -1.541817 -0.029873 -14.915120 -5.467987 5.055588 0.277930 20.478773 -4.259225 3.273238 57.654410 -66.017353 -87.113982 -1.883651 9.803688 0.094343 -7.553598 -71.563459 -0.325546 -125.114042 80.162268 -123.100371 -0.941202 -16.844471 -0.303678 -0.434715 0.844899 -0.176156 -11.684606 -75.490294 27.998229 118.685820 78.771554 115.347868 -16.058261 -23.371734 0.463791 -0.138265 -0.863851 -0.053418
-66.433152 50.351675 -3.444637 165.652238 -8.730050 -1.067128 2.373317 6.628024 0.749314 0.082653 0.281620 -0.004709 0.172680 0.502004 -0.005682 2.204146 6.393852 0.040789 -4.213714 19.025990 -0.133585 -7.670370 -0.368860 1.073713 1.730487 8.659878 0.074544 -10.676348 -12.996238 -9.359981 -61.286790 -68.006259 88.817570 -1.617385 -0.103024 -15.115171 -5.504754 5.031104 0.268489 20.611959 -4.421715 3.673574 58.208266 -65.822712 -87.808100 -1.870629 9.689165 0.074995 -7.559757 -71.512550 -0.233354 -124.895533 80.158065 -122.931691 -0.936598 -16.805353 -0.255982 -0.458222 0.833857 -0.189290 -11.722037 -75.433732 28.080243 118.731425 78.779412 115.386095 -16.040408 -23.385189 0.464499 -0.125641 -0.878839 -0.053590
-66.436821 50.352952 -3.437302 165.636748 -8.792068 -1.104666 2.308751 6.662017 0.775816 0.096852 0.287467 -0.003247 0.169937 0.504473 -0.005350 2.166025 6.416213 0.043532 -4.293349 19.017104 -0.166963 -7.805942 -0.383828 1.037987 1.784985 8.635841 0.047605 -10.861693 -13.269010 -9.569741 -62.615418 -67.984463 90.196086 -1.691073 -0.170812 -15.334566 -5.537965 5.014462 0.276282 20.753245 -4.581551 4.101080 58.805055 -65.620945 -88.552820 -1.852401 9.557290 0.058269 -7.619681 -71.456004 -0.097014 -124.701932 80.122543 -122.756187 -1.011825 -16.771435 -0.249117 -0.393912 0.814453 -0.156271 -11.818556 -75.365805 28.195937 118.756870 78.791744 115.408829 -16.031385 -23.418549 0.470279 -0.120268 -0.861471 -0.056630
-66.443269 50.353401 -3.428957 165.606684 -8.839325 -1.123188 2.272054 6.684773 0.786818 0.112614 0.294190 -0.001810 0.149463 0.500459 -0.006057 2.127044 6.433668 0.047345 -4.354531 19.014920 -0.194832 -7.909276 -0.386833 1.006191 1.791366 8.590367 -0.002099 -10.991997 -13.520274 -9.793813 -64.053139 -67.958197 91.676928 -1.765319 -0.236360 -15.571363 -5.572212 5.002056 0.302660 20.902412 -4.735339 4.549489 59.434916 -65.409978 -89.333244 -1.824714 9.411210 0.034037 -7.614027 -71.412491 -0.035180 -124.545490 80.116656 -122.630010 -1.013233 -16.748586 -0.226357 -0.410858 0.814235 -0.149821 -11.898529 -75.314549 28.298431 118.820291 78.805929 115.460815 -15.996555 -23.436112 0.465879 -0.122492 -0.863239 -0.056483
-66.451061 50.353218 -3.421239 165.585858 -8.882591 -1.132066 2.225737 6.704471 0.787423 0.163645 0.312124 0.001549 0.112110 0.489989 -0.007969 2.069305 6.443368 0.052797 -4.399023 19.021266 -0.217209 -7.983461 -0.374330 0.978687 1.802386 8.539280 -0.053304 -11.114258 -13.766951 -10.041244 -65.608119 -67.916625 93.265498 -1.840289 -0.294577 -15.814610 -5.607105 4.988394 0.341094 21.060335 -4.884337 5.018234 60.088120 -65.176061 -90.144044 -1.792408 9.263057 0.001376 -7.572027 -71.375812 -0.020171 -124.440568 80.113857 -122.543928 -1.042801 -16.730634 -0.205991 -0.399594 0.811166 -0.144011 -11.941881 -75.267794 28.355385 118.864829 78.816089 115.495441 -15.996978 -23.454862 0.475552 -0.096047 -0.853540 -0.059675
-66.458726 50.351766 -3.409464 165.512033 -8.897959 -1.137020 2.230531 6.695437 0.793419 0.109609 0.295674 -0.001620 0.217535 0.524252 -0.003515 1.977783 6.442176 0.060664 -4.429228 19.036715 -0.234686 -8.032762 -0.345263 0.955147 1.766273 8.412535 -0.122518 -11.171731 -13.937673 -10.314906 -67.276426 -67.851833 94.953627 -1.916758 -0.344176 -16.048450 -5.637964 4.973434 0.388146 21.221747 -5.032478 5.501954 60.750587 -64.906452 -90.977059 -1.762543 9.128837 -0.035535 -7.487347 -71.370658 0.013757 -124.260024 80.133114 -122.405938 -1.043039 -16.682504 -0.147519 -0.444564 0.805538 -0.163894 -11.984530 -75.248767 28.455956 118.937550 78.819941 115.555254 -15.942705 -23.475583 0.472793 -0.094165 -0.849179 -0.066319
-66.462937 50.350583 -3.402513 165.470489 -8.941494 -1.156833 2.240129 6.726099 0.816550 0.072990 0.285029 -0.001913 0.215215 0.525172 -0.004002 1.947700 6.457730 0.073584 -4.446468 19.059114 -0.247417 -8.059557 -0.303734 0.935984 1.783349 8.319069 -0.167833 -11.270639 -14.145393 -10.618690 -69.030262 -67.752631 96.725852 -1.996186 -0.393470 -16.259233 -5.664036 4.957946 0.444406 21.379833 -5.182156 5.989738 61.407363 -64.603729 -91.816756 -1.734601 9.016964 -0.072797 -7.442974 -71.334414 0.048196 -124.155885 80.130809 -122.311752 -1.057754 -16.649478 -0.127630 -0.444920 0.791455 -0.162587 -12.067654 -75.200866 28.566896 119.004041 78.827523 115.611794 -15.898014 -23.490115 0.478433 -0.109408 -0.881085 -0.066702
-66.466758 50.349331 -3.398539 165.413315 -8.999627 -1.168552 2.213065 6.752473 0.830772 0.141269 0.310623 -0.003308 0.105510 0.493416 0.000423 1.974901 6.490435 0.084312 -4.449231 19.085683 -0.255550 -8.061154 -0.254985 0.920469 1.849301 8.284652 -0.201815 -11.421375 -14.416188 -10.932067 -70.829514 -67.604972 98.559762 -2.079282 -0.446915 -16.432410 -5.684228 4.940543 0.505804 21.534670 -5.336058 6.477152 62.040828 -64.273444 -92.646740 -1.706453 8.920743 -0.110121 -7.376698 -71.281641 0.066051 -124.060643 80.132561 -122.227849 -1.057752 -16.626919 -0.109836 -0.451883 0.786134 -0.165963 -12.169152 -75.143338 28.692209 119.106228 78.810931 115.701469 -15.841332 -23.470720 0.482476 -0.163475 -0.926671 -0.090869
-66.470886 50.347637 -3.394541 165.388396 -9.053775 -1.179469 2.155219 6.773465 0.841723 0.106462 0.300189 -0.001428 0.136569 0.508735 0.000484 2.012868 6.516952 0.086398 -4.477888 19.114579 -0.243487 -8.035678 -0.203022 0.907484 1.827013 8.193002 -0.227928 -11.535240 -14.639925 -11.269462 -72.645383 -67.398368 100.437161 -2.164725 -0.499096 -16.566553 -5.741589 4.920344 0.583655 21.693506 -5.497197 6.963721 62.647645 -63.914927 -93.472853 -1.679301 8.834296 -0.146674 -7.359113 -71.229072 0.083764 -124.009725 80.136155 -122.184872 -1.049833 -16.623512 -0.104968 -0.449121 0.785748 -0.176499 -12.188679 -75.089704 28.729194 119.116317 78.824981 115.724829 -15.896692 -23.458274 0.502922 -0.124623 -0.945690 -0.096065
-66.473618 50.345613 -3.389739 165.366952 -9.103321 -1.195682 2.113669 6.795762 0.861993 0.087366 0.295381 0.000130 0.169875 0.523864 -0.002530 1.948601 6.532377 0.107742 -4.429160 19.144297 -0.251819 -7.986102 -0.150073 0.896704 1.868863 8.101932 -0.275110 -11.664047 -14.872134 -11.620946 -74.459059 -67.132838 102.349939 -2.250112 -0.542896 -16.672073 -5.722022 4.897462 0.641138 21.865107 -5.667976 7.445602 63.238990 -63.529894 -94.315312 -1.648939 8.755043 -0.179536 -7.319189 -71.184135 0.093886 -123.930510 80.124152 -122.103105 -1.067086 -16.611591 -0.098251 -0.432998 0.782699 -0.170800 -12.236002 -75.040477 28.789963 119.083331 78.821183 115.701274 -15.940599 -23.438070 0.503197 -0.100977 -0.962903 -0.092788
-66.476711 50.342786 -3.380937 165.335653 -9.127420 -1.209567 2.083742 6.791227 0.884273 0.117921 0.311071 -0.005342 0.185798 0.531057 -0.005092 1.860911 6.536764 0.138011 -4.361721 19.158457 -0.279800 -7.921932 -0.075534 0.910712 1.914271 8.028903 -0.323731 -11.832651 -15.130790 -11.975096 -76.252661 -66.820436 104.293182 -2.334722 -0.580091 -16.753739 -5.664434 4.884549 0.647570 22.016916 -5.878510 7.969159 63.822975 -63.124498 -95.186570 -1.611673 8.670359 -0.213614 -7.292613 -71.164442 0.129836 -123.797232 80.119722 -121.981534 -1.077571 -16.593041 -0.076590 -0.434050 0.785924 -0.173496 -12.309801 -75.019152 28.878051 119.039392 78.806126 115.667303 -15.962901 -23.408060 0.491015 -0.121219 -0.987551 -0.093176
-66.479832 50.340328 -3.375228 165.292173 -9.167923 -1.212131 2.068280 6.801375 0.901044 0.144797 0.328310 -0.012750 0.152077 0.521450 0.001857 1.852744 6.554964 0.156589 -4.315786 19.199175 -0.263011 -7.818541 -0.027228 0.892366 1.931621 7.961535 -0.365059 -12.038254 -15.400211 -12.331241 -78.024141 -66.478196 106.267728 -2.415277 -0.612126 -16.808817 -5.677136 4.862839 0.737570 22.254488 -6.052718 8.416245 64.413031 -62.700136 -96.104338 -1.572188 8.576506 -0.253024 -7.227318 -71.129222 0.134328 -123.680596 80.116033 -121.877264 -1.087052 -16.581928 -0.056126 -0.438298 0.795353 -0.173449 -12.361809 -74.981599 28.936359 118.992515 78.772411 115.626926 -15.945431 -23.365524 0.474273 -0.118374 -1.026356 -0.099084
-66.481419 50.338253 -3.371547 165.243905 -9.220268 -1.215659 2.063331 6.824691 0.923369 0.139856 0.326968 -0.014530 0.151235 0.524413 0.003132 1.846909 6.578504 0.175566 -4.249968 19.238053 -0.240460 -7.696471 0.019357 0.877530 1.942809 7.896212 -0.404451 -12.286011 -15.680296 -12.685747 -79.786248 -66.121257 108.278521 -2.485100 -0.637882 -16.836978 -5.687717 4.841787 0.823297 22.519180 -6.233432 8.855554 65.024283 -62.254687 -97.083540 -1.537757 8.483778 -0.299136 -7.165856 -71.089221 0.157659 -123.560413 80.094345 -121.773895 -1.112173 -16.553671 -0.037994 -0.419950 0.781739 -0.166564 -12.355795 -74.930271 28.953983 118.942882 78.750513 115.593844 -15.950996 -23.343268 0.463462 -0.124474 -1.028993 -0.094575
